<svg version="1.1" viewBox="0.0 0.0 625.2309711286089 447.7769028871391" fill="none" stroke="none" stroke-linecap="square" stroke-miterlimit="10" xmlns:xlink="http://www.w3.org/1999/xlink" xmlns="http://www.w3.org/2000/svg"><clipPath id="p.0"><path d="m0 0l625.23096 0l0 447.77692l-625.23096 0l0 -447.77692z" clip-rule="nonzero"/></clipPath><g clip-path="url(#p.0)"><path fill="#000000" fill-opacity="0.0" d="m0 0l625.23096 0l0 447.77692l-625.23096 0z" fill-rule="evenodd"/><path fill="#cfe2f3" d="m22.097113 227.05307l0 0c0 -114.16205 57.19474 -206.70866 127.748024 -206.70866l0 0c33.88089 0 66.3741 21.778172 90.33151 60.543568c23.957382 38.76539 37.41652 91.342545 37.41652 146.1651l0 0c0 114.16205 -57.194733 206.70865 -127.74803 206.70865l0 0c-70.55328 0 -127.748024 -92.5466 -127.748024 -206.70865z" fill-rule="evenodd"/><path stroke="#000000" stroke-width="1.0" stroke-linejoin="round" stroke-linecap="butt" d="m22.097113 227.05307l0 0c0 -114.16205 57.19474 -206.70866 127.748024 -206.70866l0 0c33.88089 0 66.3741 21.778172 90.33151 60.543568c23.957382 38.76539 37.41652 91.342545 37.41652 146.1651l0 0c0 114.16205 -57.194733 206.70865 -127.74803 206.70865l0 0c-70.55328 0 -127.748024 -92.5466 -127.748024 -206.70865z" fill-rule="evenodd"/><path fill="#cfe2f3" d="m348.29398 227.05307l0 0c0 -114.16205 57.194733 -206.70866 127.74802 -206.70866l0 0c33.88089 0 66.374084 21.778172 90.33148 60.543568c23.957458 38.76539 37.416565 91.342545 37.416565 146.1651l0 0c0 114.16205 -57.194763 206.70865 -127.74805 206.70865l0 0c-70.55328 0 -127.74802 -92.5466 -127.74802 -206.70865z" fill-rule="evenodd"/><path stroke="#000000" stroke-width="1.0" stroke-linejoin="round" stroke-linecap="butt" d="m348.29398 227.05307l0 0c0 -114.16205 57.194733 -206.70866 127.74802 -206.70866l0 0c33.88089 0 66.374084 21.778172 90.33148 60.543568c23.957458 38.76539 37.416565 91.342545 37.416565 146.1651l0 0c0 114.16205 -57.194763 206.70865 -127.74805 206.70865l0 0c-70.55328 0 -127.74802 -92.5466 -127.74802 -206.70865z" fill-rule="evenodd"/><path fill="#000000" d="m160.93752 109.518394l0 0c0 -2.9919052 2.7709045 -5.4173203 6.18898 -5.4173203l0 0c3.4180756 0 6.18898 2.425415 6.18898 5.4173203l0 0c0 2.9919052 -2.7709045 5.4173203 -6.18898 5.4173203l0 0c-3.4180756 0 -6.18898 -2.425415 -6.18898 -5.4173203z" fill-rule="evenodd"/><path stroke="#000000" stroke-width="1.0" stroke-linejoin="round" stroke-linecap="butt" d="m160.93752 109.518394l0 0c0 -2.9919052 2.7709045 -5.4173203 6.18898 -5.4173203l0 0c3.4180756 0 6.18898 2.425415 6.18898 5.4173203l0 0c0 2.9919052 -2.7709045 5.4173203 -6.18898 5.4173203l0 0c-3.4180756 0 -6.18898 -2.425415 -6.18898 -5.4173203z" fill-rule="evenodd"/><path fill="#000000" d="m160.93752 145.1313l0 0c0 -2.9919128 2.7709045 -5.417328 6.18898 -5.417328l0 0c3.4180756 0 6.18898 2.425415 6.18898 5.417328l0 0c0 2.9918976 -2.7709045 5.4173126 -6.18898 5.4173126l0 0c-3.4180756 0 -6.18898 -2.425415 -6.18898 -5.4173126z" fill-rule="evenodd"/><path stroke="#000000" stroke-width="1.0" stroke-linejoin="round" stroke-linecap="butt" d="m160.93752 145.1313l0 0c0 -2.9919128 2.7709045 -5.417328 6.18898 -5.417328l0 0c3.4180756 0 6.18898 2.425415 6.18898 5.417328l0 0c0 2.9918976 -2.7709045 5.4173126 -6.18898 5.4173126l0 0c-3.4180756 0 -6.18898 -2.425415 -6.18898 -5.4173126z" fill-rule="evenodd"/><path fill="#000000" d="m160.93752 177.1313l0 0c0 -2.9919128 2.7709045 -5.417328 6.18898 -5.417328l0 0c3.4180756 0 6.18898 2.425415 6.18898 5.417328l0 0c0 2.9918976 -2.7709045 5.4173126 -6.18898 5.4173126l0 0c-3.4180756 0 -6.18898 -2.425415 -6.18898 -5.4173126z" fill-rule="evenodd"/><path stroke="#000000" stroke-width="1.0" stroke-linejoin="round" stroke-linecap="butt" d="m160.93752 177.1313l0 0c0 -2.9919128 2.7709045 -5.417328 6.18898 -5.417328l0 0c3.4180756 0 6.18898 2.425415 6.18898 5.417328l0 0c0 2.9918976 -2.7709045 5.4173126 -6.18898 5.4173126l0 0c-3.4180756 0 -6.18898 -2.425415 -6.18898 -5.4173126z" fill-rule="evenodd"/><path fill="#000000" d="m160.93752 209.1313l0 0c0 -2.9919128 2.7709045 -5.417328 6.18898 -5.417328l0 0c3.4180756 0 6.18898 2.425415 6.18898 5.417328l0 0c0 2.9918976 -2.7709045 5.4173126 -6.18898 5.4173126l0 0c-3.4180756 0 -6.18898 -2.425415 -6.18898 -5.4173126z" fill-rule="evenodd"/><path stroke="#000000" stroke-width="1.0" stroke-linejoin="round" stroke-linecap="butt" d="m160.93752 209.1313l0 0c0 -2.9919128 2.7709045 -5.417328 6.18898 -5.417328l0 0c3.4180756 0 6.18898 2.425415 6.18898 5.417328l0 0c0 2.9918976 -2.7709045 5.4173126 -6.18898 5.4173126l0 0c-3.4180756 0 -6.18898 -2.425415 -6.18898 -5.4173126z" fill-rule="evenodd"/><path fill="#000000" d="m160.93752 241.1313l0 0c0 -2.9919128 2.7709045 -5.417328 6.18898 -5.417328l0 0c3.4180756 0 6.18898 2.425415 6.18898 5.417328l0 0c0 2.9918976 -2.7709045 5.4173126 -6.18898 5.4173126l0 0c-3.4180756 0 -6.18898 -2.425415 -6.18898 -5.4173126z" fill-rule="evenodd"/><path stroke="#000000" stroke-width="1.0" stroke-linejoin="round" stroke-linecap="butt" d="m160.93752 241.1313l0 0c0 -2.9919128 2.7709045 -5.417328 6.18898 -5.417328l0 0c3.4180756 0 6.18898 2.425415 6.18898 5.417328l0 0c0 2.9918976 -2.7709045 5.4173126 -6.18898 5.4173126l0 0c-3.4180756 0 -6.18898 -2.425415 -6.18898 -5.4173126z" fill-rule="evenodd"/><path fill="#000000" d="m160.93752 273.1313l0 0c0 -2.9918823 2.7709045 -5.417328 6.18898 -5.417328l0 0c3.4180756 0 6.18898 2.4254456 6.18898 5.417328l0 0c0 2.9919128 -2.7709045 5.417328 -6.18898 5.417328l0 0c-3.4180756 0 -6.18898 -2.425415 -6.18898 -5.417328z" fill-rule="evenodd"/><path stroke="#000000" stroke-width="1.0" stroke-linejoin="round" stroke-linecap="butt" d="m160.93752 273.1313l0 0c0 -2.9918823 2.7709045 -5.417328 6.18898 -5.417328l0 0c3.4180756 0 6.18898 2.4254456 6.18898 5.417328l0 0c0 2.9919128 -2.7709045 5.417328 -6.18898 5.417328l0 0c-3.4180756 0 -6.18898 -2.425415 -6.18898 -5.417328z" fill-rule="evenodd"/><path fill="#000000" d="m160.93752 305.1313l0 0c0 -2.9918823 2.7709045 -5.417328 6.18898 -5.417328l0 0c3.4180756 0 6.18898 2.4254456 6.18898 5.417328l0 0c0 2.9919128 -2.7709045 5.417328 -6.18898 5.417328l0 0c-3.4180756 0 -6.18898 -2.425415 -6.18898 -5.417328z" fill-rule="evenodd"/><path stroke="#000000" stroke-width="1.0" stroke-linejoin="round" stroke-linecap="butt" d="m160.93752 305.1313l0 0c0 -2.9918823 2.7709045 -5.417328 6.18898 -5.417328l0 0c3.4180756 0 6.18898 2.4254456 6.18898 5.417328l0 0c0 2.9919128 -2.7709045 5.417328 -6.18898 5.417328l0 0c-3.4180756 0 -6.18898 -2.425415 -6.18898 -5.417328z" fill-rule="evenodd"/><path fill="#000000" d="m160.93752 337.1313l0 0c0 -2.9918823 2.7709045 -5.417328 6.18898 -5.417328l0 0c3.4180756 0 6.18898 2.4254456 6.18898 5.417328l0 0c0 2.9919128 -2.7709045 5.417328 -6.18898 5.417328l0 0c-3.4180756 0 -6.18898 -2.425415 -6.18898 -5.417328z" fill-rule="evenodd"/><path stroke="#000000" stroke-width="1.0" stroke-linejoin="round" stroke-linecap="butt" d="m160.93752 337.1313l0 0c0 -2.9918823 2.7709045 -5.417328 6.18898 -5.417328l0 0c3.4180756 0 6.18898 2.4254456 6.18898 5.417328l0 0c0 2.9919128 -2.7709045 5.417328 -6.18898 5.417328l0 0c-3.4180756 0 -6.18898 -2.425415 -6.18898 -5.417328z" fill-rule="evenodd"/><path fill="#000000" fill-opacity="0.0" d="m121.19583 88.499l34.07875 0l0 42.015755l-34.07875 0z" fill-rule="evenodd"/><path fill="#000000" d="m130.97708 108.82525q0 -2.359375 0.484375 -3.796875q0.484375 -1.453125 1.4375 -2.234375q0.96875 -0.78125 2.421875 -0.78125q1.078125 0 1.890625 0.4375q0.8125 0.421875 1.328125 1.25q0.53125 0.8125 0.828125 1.984375q0.3125 1.15625 0.3125 3.140625q0 2.359375 -0.484375 3.8125q-0.484375 1.4375 -1.453125 2.234375q-0.953125 0.78125 -2.421875 0.78125q-1.921875 0 -3.03125 -1.390625q-1.3125 -1.671875 -1.3125 -5.4375zm1.671875 0q0 3.296875 0.765625 4.390625q0.78125 1.078125 1.90625 1.078125q1.140625 0 1.90625 -1.09375q0.765625 -1.09375 0.765625 -4.375q0 -3.296875 -0.765625 -4.375q-0.765625 -1.078125 -1.921875 -1.078125q-1.125 0 -1.796875 0.953125q-0.859375 1.21875 -0.859375 4.5z" fill-rule="nonzero"/><path fill="#000000" fill-opacity="0.0" d="m121.19583 123.59578l34.07875 0l0 42.015747l-34.07875 0z" fill-rule="evenodd"/><path fill="#000000" d="m137.14896 150.51578l-1.640625 0l0 -10.453125q-0.59375 0.5625 -1.5625 1.140625q-0.953125 0.5625 -1.71875 0.84375l0 -1.59375q1.375 -0.640625 2.40625 -1.5625q1.03125 -0.921875 1.453125 -1.78125l1.0625 0l0 13.40625z" fill-rule="nonzero"/><path fill="#000000" fill-opacity="0.0" d="m121.19583 155.59578l34.07875 0l0 42.015747l-34.07875 0z" fill-rule="evenodd"/><path fill="#000000" d="m139.58646 180.93765l0 1.578125l-8.828125 0q-0.015625 -0.59375 0.1875 -1.140625q0.34375 -0.90625 1.078125 -1.78125q0.75 -0.875 2.15625 -2.015625q2.171875 -1.78125 2.9375 -2.828125q0.765625 -1.046875 0.765625 -1.96875q0 -0.984375 -0.703125 -1.640625q-0.6875 -0.671875 -1.8125 -0.671875q-1.1875 0 -1.90625 0.71875q-0.703125 0.703125 -0.703125 1.953125l-1.6875 -0.171875q0.171875 -1.890625 1.296875 -2.875q1.140625 -0.984375 3.03125 -0.984375q1.921875 0 3.046875 1.0625q1.125 1.0625 1.125 2.640625q0 0.796875 -0.328125 1.578125q-0.328125 0.78125 -1.09375 1.640625q-0.75 0.84375 -2.53125 2.34375q-1.46875 1.234375 -1.890625 1.6875q-0.421875 0.4375 -0.6875 0.875l6.546875 0z" fill-rule="nonzero"/><path fill="#000000" fill-opacity="0.0" d="m121.19583 187.59578l34.07875 0l0 42.015747l-34.07875 0z" fill-rule="evenodd"/><path fill="#000000" d="m130.97708 210.98453l1.640625 -0.21875q0.28125 1.40625 0.953125 2.015625q0.6875 0.609375 1.65625 0.609375q1.15625 0 1.953125 -0.796875q0.796875 -0.796875 0.796875 -1.984375q0 -1.125 -0.734375 -1.859375q-0.734375 -0.734375 -1.875 -0.734375q-0.46875 0 -1.15625 0.171875l0.1875 -1.4375q0.15625 0.015625 0.265625 0.015625q1.046875 0 1.875 -0.546875q0.84375 -0.546875 0.84375 -1.671875q0 -0.90625 -0.609375 -1.5q-0.609375 -0.59375 -1.578125 -0.59375q-0.953125 0 -1.59375 0.609375q-0.640625 0.59375 -0.8125 1.796875l-1.640625 -0.296875q0.296875 -1.640625 1.359375 -2.546875q1.0625 -0.90625 2.65625 -0.90625q1.09375 0 2.0 0.46875q0.921875 0.46875 1.40625 1.28125q0.5 0.8125 0.5 1.71875q0 0.859375 -0.46875 1.578125q-0.46875 0.703125 -1.375 1.125q1.1875 0.28125 1.84375 1.140625q0.65625 0.859375 0.65625 2.15625q0 1.734375 -1.28125 2.953125q-1.265625 1.21875 -3.21875 1.21875q-1.765625 0 -2.921875 -1.046875q-1.15625 -1.046875 -1.328125 -2.71875z" fill-rule="nonzero"/><path fill="#000000" fill-opacity="0.0" d="m121.19583 221.14417l34.07875 0l0 42.015747l-34.07875 0z" fill-rule="evenodd"/><path fill="#000000" d="m136.22708 248.06416l0 -3.203125l-5.796875 0l0 -1.5l6.09375 -8.65625l1.34375 0l0 8.65625l1.796875 0l0 1.5l-1.796875 0l0 3.203125l-1.640625 0zm0 -4.703125l0 -6.015625l-4.1875 6.015625l4.1875 0z" fill-rule="nonzero"/><path fill="#000000" fill-opacity="0.0" d="m121.19583 253.14417l34.07875 0l0 42.015747l-34.07875 0z" fill-rule="evenodd"/><path fill="#000000" d="m130.97708 276.56418l1.71875 -0.140625q0.1875 1.25 0.875 1.890625q0.703125 0.625 1.6875 0.625q1.1875 0 2.0 -0.890625q0.828125 -0.890625 0.828125 -2.359375q0 -1.40625 -0.796875 -2.21875q-0.78125 -0.8125 -2.0625 -0.8125q-0.78125 0 -1.421875 0.359375q-0.640625 0.359375 -1.0 0.9375l-1.546875 -0.203125l1.296875 -6.859375l6.640625 0l0 1.5625l-5.328125 0l-0.71875 3.59375q1.203125 -0.84375 2.515625 -0.84375q1.75 0 2.953125 1.21875q1.203125 1.203125 1.203125 3.109375q0 1.8125 -1.046875 3.140625q-1.296875 1.625 -3.515625 1.625q-1.8125 0 -2.96875 -1.015625q-1.15625 -1.03125 -1.3125 -2.71875z" fill-rule="nonzero"/><path fill="#000000" fill-opacity="0.0" d="m121.19583 285.14417l34.07875 0l0 42.015747l-34.07875 0z" fill-rule="evenodd"/><path fill="#000000" d="m139.47708 301.98605l-1.625 0.125q-0.21875 -0.96875 -0.625 -1.40625q-0.65625 -0.703125 -1.640625 -0.703125q-0.78125 0 -1.375 0.4375q-0.765625 0.5625 -1.21875 1.65625q-0.453125 1.078125 -0.46875 3.078125q0.59375 -0.890625 1.453125 -1.328125q0.859375 -0.4375 1.796875 -0.4375q1.640625 0 2.78125 1.203125q1.15625 1.203125 1.15625 3.109375q0 1.265625 -0.546875 2.34375q-0.53125 1.078125 -1.484375 1.65625q-0.9375 0.578125 -2.140625 0.578125q-2.0625 0 -3.359375 -1.5q-1.28125 -1.515625 -1.28125 -4.984375q0 -3.875 1.421875 -5.625q1.25 -1.53125 3.375 -1.53125q1.5625 0 2.5625 0.890625q1.015625 0.875 1.21875 2.4375zm-6.6875 5.75q0 0.84375 0.359375 1.625q0.359375 0.765625 1.0 1.171875q0.640625 0.40625 1.359375 0.40625q1.03125 0 1.78125 -0.828125q0.75 -0.84375 0.75 -2.28125q0 -1.390625 -0.734375 -2.1875q-0.734375 -0.796875 -1.859375 -0.796875q-1.109375 0 -1.890625 0.796875q-0.765625 0.796875 -0.765625 2.09375z" fill-rule="nonzero"/><path fill="#000000" fill-opacity="0.0" d="m121.19583 317.14417l34.07875 0l0 42.015747l-34.07875 0z" fill-rule="evenodd"/><path fill="#000000" d="m131.08646 332.4548l0 -1.578125l8.640625 0l0 1.28125q-1.28125 1.359375 -2.53125 3.609375q-1.25 2.25 -1.9375 4.625q-0.484375 1.671875 -0.625 3.671875l-1.6875 0q0.03125 -1.578125 0.625 -3.8125q0.59375 -2.234375 1.6875 -4.296875q1.109375 -2.078125 2.359375 -3.5l-6.53125 0z" fill-rule="nonzero"/><path fill="#000000" fill-opacity="0.0" d="m130.48793 356.37006l46.456696 0l0 51.716522l-46.456696 0z" fill-rule="evenodd"/><path fill="#000000" d="m142.5973 390.97006l0 -2.671875l2.671875 0l0 2.671875l-2.671875 0zm8.890625 0l0 -2.671875l2.671875 0l0 2.671875l-2.671875 0zm8.875 0l0 -2.671875l2.6875 0l0 2.671875l-2.6875 0z" fill-rule="nonzero"/><path fill="#000000" d="m457.45364 109.518394l0 0c0 -2.9919052 2.7709045 -5.4173203 6.1889954 -5.4173203l0 0c3.4180603 0 6.188965 2.425415 6.188965 5.4173203l0 0c0 2.9919052 -2.7709045 5.4173203 -6.188965 5.4173203l0 0c-3.4180908 0 -6.1889954 -2.425415 -6.1889954 -5.4173203z" fill-rule="evenodd"/><path stroke="#000000" stroke-width="1.0" stroke-linejoin="round" stroke-linecap="butt" d="m457.45364 109.518394l0 0c0 -2.9919052 2.7709045 -5.4173203 6.1889954 -5.4173203l0 0c3.4180603 0 6.188965 2.425415 6.188965 5.4173203l0 0c0 2.9919052 -2.7709045 5.4173203 -6.188965 5.4173203l0 0c-3.4180908 0 -6.1889954 -2.425415 -6.1889954 -5.4173203z" fill-rule="evenodd"/><path fill="#000000" d="m457.45364 145.1313l0 0c0 -2.9919128 2.7709045 -5.417328 6.1889954 -5.417328l0 0c3.4180603 0 6.188965 2.425415 6.188965 5.417328l0 0c0 2.9918976 -2.7709045 5.4173126 -6.188965 5.4173126l0 0c-3.4180908 0 -6.1889954 -2.425415 -6.1889954 -5.4173126z" fill-rule="evenodd"/><path stroke="#000000" stroke-width="1.0" stroke-linejoin="round" stroke-linecap="butt" d="m457.45364 145.1313l0 0c0 -2.9919128 2.7709045 -5.417328 6.1889954 -5.417328l0 0c3.4180603 0 6.188965 2.425415 6.188965 5.417328l0 0c0 2.9918976 -2.7709045 5.4173126 -6.188965 5.4173126l0 0c-3.4180908 0 -6.1889954 -2.425415 -6.1889954 -5.4173126z" fill-rule="evenodd"/><path fill="#000000" d="m457.45364 177.1313l0 0c0 -2.9919128 2.7709045 -5.417328 6.1889954 -5.417328l0 0c3.4180603 0 6.188965 2.425415 6.188965 5.417328l0 0c0 2.9918976 -2.7709045 5.4173126 -6.188965 5.4173126l0 0c-3.4180908 0 -6.1889954 -2.425415 -6.1889954 -5.4173126z" fill-rule="evenodd"/><path stroke="#000000" stroke-width="1.0" stroke-linejoin="round" stroke-linecap="butt" d="m457.45364 177.1313l0 0c0 -2.9919128 2.7709045 -5.417328 6.1889954 -5.417328l0 0c3.4180603 0 6.188965 2.425415 6.188965 5.417328l0 0c0 2.9918976 -2.7709045 5.4173126 -6.188965 5.4173126l0 0c-3.4180908 0 -6.1889954 -2.425415 -6.1889954 -5.4173126z" fill-rule="evenodd"/><path fill="#000000" d="m457.45364 209.1313l0 0c0 -2.9919128 2.7709045 -5.417328 6.1889954 -5.417328l0 0c3.4180603 0 6.188965 2.425415 6.188965 5.417328l0 0c0 2.9918976 -2.7709045 5.4173126 -6.188965 5.4173126l0 0c-3.4180908 0 -6.1889954 -2.425415 -6.1889954 -5.4173126z" fill-rule="evenodd"/><path stroke="#000000" stroke-width="1.0" stroke-linejoin="round" stroke-linecap="butt" d="m457.45364 209.1313l0 0c0 -2.9919128 2.7709045 -5.417328 6.1889954 -5.417328l0 0c3.4180603 0 6.188965 2.425415 6.188965 5.417328l0 0c0 2.9918976 -2.7709045 5.4173126 -6.188965 5.4173126l0 0c-3.4180908 0 -6.1889954 -2.425415 -6.1889954 -5.4173126z" fill-rule="evenodd"/><path fill="#000000" d="m457.45364 241.1313l0 0c0 -2.9919128 2.7709045 -5.417328 6.1889954 -5.417328l0 0c3.4180603 0 6.188965 2.425415 6.188965 5.417328l0 0c0 2.9918976 -2.7709045 5.4173126 -6.188965 5.4173126l0 0c-3.4180908 0 -6.1889954 -2.425415 -6.1889954 -5.4173126z" fill-rule="evenodd"/><path stroke="#000000" stroke-width="1.0" stroke-linejoin="round" stroke-linecap="butt" d="m457.45364 241.1313l0 0c0 -2.9919128 2.7709045 -5.417328 6.1889954 -5.417328l0 0c3.4180603 0 6.188965 2.425415 6.188965 5.417328l0 0c0 2.9918976 -2.7709045 5.4173126 -6.188965 5.4173126l0 0c-3.4180908 0 -6.1889954 -2.425415 -6.1889954 -5.4173126z" fill-rule="evenodd"/><path fill="#000000" d="m457.45364 273.1313l0 0c0 -2.9918823 2.7709045 -5.417328 6.1889954 -5.417328l0 0c3.4180603 0 6.188965 2.4254456 6.188965 5.417328l0 0c0 2.9919128 -2.7709045 5.417328 -6.188965 5.417328l0 0c-3.4180908 0 -6.1889954 -2.425415 -6.1889954 -5.417328z" fill-rule="evenodd"/><path stroke="#000000" stroke-width="1.0" stroke-linejoin="round" stroke-linecap="butt" d="m457.45364 273.1313l0 0c0 -2.9918823 2.7709045 -5.417328 6.1889954 -5.417328l0 0c3.4180603 0 6.188965 2.4254456 6.188965 5.417328l0 0c0 2.9919128 -2.7709045 5.417328 -6.188965 5.417328l0 0c-3.4180908 0 -6.1889954 -2.425415 -6.1889954 -5.417328z" fill-rule="evenodd"/><path fill="#000000" d="m457.45364 305.1313l0 0c0 -2.9918823 2.7709045 -5.417328 6.1889954 -5.417328l0 0c3.4180603 0 6.188965 2.4254456 6.188965 5.417328l0 0c0 2.9919128 -2.7709045 5.417328 -6.188965 5.417328l0 0c-3.4180908 0 -6.1889954 -2.425415 -6.1889954 -5.417328z" fill-rule="evenodd"/><path stroke="#000000" stroke-width="1.0" stroke-linejoin="round" stroke-linecap="butt" d="m457.45364 305.1313l0 0c0 -2.9918823 2.7709045 -5.417328 6.1889954 -5.417328l0 0c3.4180603 0 6.188965 2.4254456 6.188965 5.417328l0 0c0 2.9919128 -2.7709045 5.417328 -6.188965 5.417328l0 0c-3.4180908 0 -6.1889954 -2.425415 -6.1889954 -5.417328z" fill-rule="evenodd"/><path fill="#000000" d="m457.45364 337.1313l0 0c0 -2.9918823 2.7709045 -5.417328 6.1889954 -5.417328l0 0c3.4180603 0 6.188965 2.4254456 6.188965 5.417328l0 0c0 2.9919128 -2.7709045 5.417328 -6.188965 5.417328l0 0c-3.4180908 0 -6.1889954 -2.425415 -6.1889954 -5.417328z" fill-rule="evenodd"/><path stroke="#000000" stroke-width="1.0" stroke-linejoin="round" stroke-linecap="butt" d="m457.45364 337.1313l0 0c0 -2.9918823 2.7709045 -5.417328 6.1889954 -5.417328l0 0c3.4180603 0 6.188965 2.4254456 6.188965 5.417328l0 0c0 2.9919128 -2.7709045 5.417328 -6.188965 5.417328l0 0c-3.4180908 0 -6.1889954 -2.425415 -6.1889954 -5.417328z" fill-rule="evenodd"/><path fill="#000000" fill-opacity="0.0" d="m473.71198 88.499l34.078735 0l0 42.015755l-34.078735 0z" fill-rule="evenodd"/><path fill="#000000" d="m483.49323 108.82525q0 -2.359375 0.484375 -3.796875q0.484375 -1.453125 1.4375 -2.234375q0.96875 -0.78125 2.421875 -0.78125q1.078125 0 1.890625 0.4375q0.8125 0.421875 1.328125 1.25q0.53125 0.8125 0.828125 1.984375q0.3125 1.15625 0.3125 3.140625q0 2.359375 -0.484375 3.8125q-0.484375 1.4375 -1.453125 2.234375q-0.953125 0.78125 -2.421875 0.78125q-1.921875 0 -3.03125 -1.390625q-1.3125 -1.671875 -1.3125 -5.4375zm1.671875 0q0 3.296875 0.765625 4.390625q0.78125 1.078125 1.90625 1.078125q1.140625 0 1.90625 -1.09375q0.765625 -1.09375 0.765625 -4.375q0 -3.296875 -0.765625 -4.375q-0.765625 -1.078125 -1.921875 -1.078125q-1.125 0 -1.796875 0.953125q-0.859375 1.21875 -0.859375 4.5z" fill-rule="nonzero"/><path fill="#000000" fill-opacity="0.0" d="m473.71198 123.59578l34.078735 0l0 42.015747l-34.078735 0z" fill-rule="evenodd"/><path fill="#000000" d="m489.6651 150.51578l-1.640625 0l0 -10.453125q-0.59375 0.5625 -1.5625 1.140625q-0.953125 0.5625 -1.71875 0.84375l0 -1.59375q1.375 -0.640625 2.40625 -1.5625q1.03125 -0.921875 1.453125 -1.78125l1.0625 0l0 13.40625z" fill-rule="nonzero"/><path fill="#000000" fill-opacity="0.0" d="m473.71198 155.59578l34.078735 0l0 42.015747l-34.078735 0z" fill-rule="evenodd"/><path fill="#000000" d="m492.1026 180.93765l0 1.578125l-8.828125 0q-0.015625 -0.59375 0.1875 -1.140625q0.34375 -0.90625 1.078125 -1.78125q0.75 -0.875 2.15625 -2.015625q2.171875 -1.78125 2.9375 -2.828125q0.765625 -1.046875 0.765625 -1.96875q0 -0.984375 -0.703125 -1.640625q-0.6875 -0.671875 -1.8125 -0.671875q-1.1875 0 -1.90625 0.71875q-0.703125 0.703125 -0.703125 1.953125l-1.6875 -0.171875q0.171875 -1.890625 1.296875 -2.875q1.140625 -0.984375 3.03125 -0.984375q1.921875 0 3.046875 1.0625q1.125 1.0625 1.125 2.640625q0 0.796875 -0.328125 1.578125q-0.328125 0.78125 -1.09375 1.640625q-0.75 0.84375 -2.53125 2.34375q-1.46875 1.234375 -1.890625 1.6875q-0.421875 0.4375 -0.6875 0.875l6.546875 0z" fill-rule="nonzero"/><path fill="#000000" fill-opacity="0.0" d="m473.71198 187.59578l34.078735 0l0 42.015747l-34.078735 0z" fill-rule="evenodd"/><path fill="#000000" d="m483.49323 210.98453l1.640625 -0.21875q0.28125 1.40625 0.953125 2.015625q0.6875 0.609375 1.65625 0.609375q1.15625 0 1.953125 -0.796875q0.796875 -0.796875 0.796875 -1.984375q0 -1.125 -0.734375 -1.859375q-0.734375 -0.734375 -1.875 -0.734375q-0.46875 0 -1.15625 0.171875l0.1875 -1.4375q0.15625 0.015625 0.265625 0.015625q1.046875 0 1.875 -0.546875q0.84375 -0.546875 0.84375 -1.671875q0 -0.90625 -0.609375 -1.5q-0.609375 -0.59375 -1.578125 -0.59375q-0.953125 0 -1.59375 0.609375q-0.640625 0.59375 -0.8125 1.796875l-1.640625 -0.296875q0.296875 -1.640625 1.359375 -2.546875q1.0625 -0.90625 2.65625 -0.90625q1.09375 0 2.0 0.46875q0.921875 0.46875 1.40625 1.28125q0.5 0.8125 0.5 1.71875q0 0.859375 -0.46875 1.578125q-0.46875 0.703125 -1.375 1.125q1.1875 0.28125 1.84375 1.140625q0.65625 0.859375 0.65625 2.15625q0 1.734375 -1.28125 2.953125q-1.265625 1.21875 -3.21875 1.21875q-1.765625 0 -2.921875 -1.046875q-1.15625 -1.046875 -1.328125 -2.71875z" fill-rule="nonzero"/><path fill="#000000" fill-opacity="0.0" d="m473.71198 221.14417l34.078735 0l0 42.015747l-34.078735 0z" fill-rule="evenodd"/><path fill="#000000" d="m488.74323 248.06416l0 -3.203125l-5.796875 0l0 -1.5l6.09375 -8.65625l1.34375 0l0 8.65625l1.796875 0l0 1.5l-1.796875 0l0 3.203125l-1.640625 0zm0 -4.703125l0 -6.015625l-4.1875 6.015625l4.1875 0z" fill-rule="nonzero"/><path fill="#000000" fill-opacity="0.0" d="m473.71198 253.14417l34.078735 0l0 42.015747l-34.078735 0z" fill-rule="evenodd"/><path fill="#000000" d="m483.49323 276.56418l1.71875 -0.140625q0.1875 1.25 0.875 1.890625q0.703125 0.625 1.6875 0.625q1.1875 0 2.0 -0.890625q0.828125 -0.890625 0.828125 -2.359375q0 -1.40625 -0.796875 -2.21875q-0.78125 -0.8125 -2.0625 -0.8125q-0.78125 0 -1.421875 0.359375q-0.640625 0.359375 -1.0 0.9375l-1.546875 -0.203125l1.296875 -6.859375l6.640625 0l0 1.5625l-5.328125 0l-0.71875 3.59375q1.203125 -0.84375 2.515625 -0.84375q1.75 0 2.953125 1.21875q1.203125 1.203125 1.203125 3.109375q0 1.8125 -1.046875 3.140625q-1.296875 1.625 -3.515625 1.625q-1.8125 0 -2.96875 -1.015625q-1.15625 -1.03125 -1.3125 -2.71875z" fill-rule="nonzero"/><path fill="#000000" fill-opacity="0.0" d="m473.71198 285.14417l34.078735 0l0 42.015747l-34.078735 0z" fill-rule="evenodd"/><path fill="#000000" d="m491.99323 301.98605l-1.625 0.125q-0.21875 -0.96875 -0.625 -1.40625q-0.65625 -0.703125 -1.640625 -0.703125q-0.78125 0 -1.375 0.4375q-0.765625 0.5625 -1.21875 1.65625q-0.453125 1.078125 -0.46875 3.078125q0.59375 -0.890625 1.453125 -1.328125q0.859375 -0.4375 1.796875 -0.4375q1.640625 0 2.78125 1.203125q1.15625 1.203125 1.15625 3.109375q0 1.265625 -0.546875 2.34375q-0.53125 1.078125 -1.484375 1.65625q-0.9375 0.578125 -2.140625 0.578125q-2.0625 0 -3.359375 -1.5q-1.28125 -1.515625 -1.28125 -4.984375q0 -3.875 1.421875 -5.625q1.25 -1.53125 3.375 -1.53125q1.5625 0 2.5625 0.890625q1.015625 0.875 1.21875 2.4375zm-6.6875 5.75q0 0.84375 0.359375 1.625q0.359375 0.765625 1.0 1.171875q0.640625 0.40625 1.359375 0.40625q1.03125 0 1.78125 -0.828125q0.75 -0.84375 0.75 -2.28125q0 -1.390625 -0.734375 -2.1875q-0.734375 -0.796875 -1.859375 -0.796875q-1.109375 0 -1.890625 0.796875q-0.765625 0.796875 -0.765625 2.09375z" fill-rule="nonzero"/><path fill="#000000" fill-opacity="0.0" d="m473.71198 317.14417l34.078735 0l0 42.015747l-34.078735 0z" fill-rule="evenodd"/><path fill="#000000" d="m483.6026 332.4548l0 -1.578125l8.640625 0l0 1.28125q-1.28125 1.359375 -2.53125 3.609375q-1.25 2.25 -1.9375 4.625q-0.484375 1.671875 -0.625 3.671875l-1.6875 0q0.03125 -1.578125 0.625 -3.8125q0.59375 -2.234375 1.6875 -4.296875q1.109375 -2.078125 2.359375 -3.5l-6.53125 0z" fill-rule="nonzero"/><path fill="#000000" fill-opacity="0.0" d="m453.32666 354.82166l46.456696 0l0 51.716553l-46.456696 0z" fill-rule="evenodd"/><path fill="#000000" d="m465.43604 389.42166l0 -2.671875l2.671875 0l0 2.671875l-2.671875 0zm8.890625 0l0 -2.671875l2.671875 0l0 2.671875l-2.671875 0zm8.875 0l0 -2.671875l2.6875 0l0 2.671875l-2.6875 0z" fill-rule="nonzero"/><path fill="#000000" fill-opacity="0.0" d="m169.20168 110.17981l288.25195 -0.6614151" fill-rule="evenodd"/><path stroke="#000000" stroke-width="1.0" stroke-linejoin="round" stroke-linecap="butt" d="m169.20168 110.17981l282.25195 -0.64764404" fill-rule="evenodd"/><path fill="#000000" stroke="#000000" stroke-width="1.0" stroke-linecap="butt" d="m451.45746 111.18389l4.5343018 -1.6621399l-4.54187 -1.6413193z" fill-rule="evenodd"/><path fill="#000000" fill-opacity="0.0" d="m173.31548 145.1313l284.12598 -35.622055" fill-rule="evenodd"/><path stroke="#000000" stroke-width="1.0" stroke-linejoin="round" stroke-linecap="butt" d="m173.31548 145.1313l278.17255 -34.875656" fill-rule="evenodd"/><path fill="#000000" stroke="#000000" stroke-width="1.0" stroke-linecap="butt" d="m451.6935 111.894554l4.297394 -2.2034454l-4.7083435 -1.0743637z" fill-rule="evenodd"/><path fill="#000000" fill-opacity="0.0" d="m173.31548 177.1313l284.12598 -32.0" fill-rule="evenodd"/><path stroke="#000000" stroke-width="1.0" stroke-linejoin="round" stroke-linecap="butt" d="m173.31548 177.1313l278.16364 -31.328491" fill-rule="evenodd"/><path fill="#000000" stroke="#000000" stroke-width="1.0" stroke-linecap="butt" d="m451.664 147.44417l4.324707 -2.1492615l-4.6944275 -1.1334534z" fill-rule="evenodd"/><path fill="#000000" fill-opacity="0.0" d="m173.31548 209.1313l277.7008 -57.133865" fill-rule="evenodd"/><path stroke="#000000" stroke-width="1.0" stroke-linejoin="round" stroke-linecap="butt" d="m173.31548 209.1313l271.82385 -55.92476" fill-rule="evenodd"/><path fill="#000000" stroke="#000000" stroke-width="1.0" stroke-linecap="butt" d="m445.4722 154.82439l4.1121216 -2.5323486l-4.777832 -0.7033386z" fill-rule="evenodd"/><path fill="#000000" fill-opacity="0.0" d="m173.31548 241.1313l284.12598 -64.0" fill-rule="evenodd"/><path stroke="#000000" stroke-width="1.0" stroke-linejoin="round" stroke-linecap="butt" d="m173.31548 241.1313l278.27264 -62.68152" fill-rule="evenodd"/><path fill="#000000" stroke="#000000" stroke-width="1.0" stroke-linecap="butt" d="m451.95105 180.06113l4.064209 -2.6085815l-4.7901306 -0.61413574z" fill-rule="evenodd"/><path fill="#000000" fill-opacity="0.0" d="m173.31548 273.1313l285.95276 -92.15747" fill-rule="evenodd"/><path stroke="#000000" stroke-width="1.0" stroke-linejoin="round" stroke-linecap="butt" d="m173.31548 273.1313l280.242 -90.317" fill-rule="evenodd"/><path fill="#000000" stroke="#000000" stroke-width="1.0" stroke-linecap="butt" d="m454.06412 184.3864l3.8126526 -2.964157l-4.8259583 -0.18005371z" fill-rule="evenodd"/><path fill="#000000" fill-opacity="0.0" d="m173.31548 305.1313l284.12598 -95.999985" fill-rule="evenodd"/><path stroke="#000000" stroke-width="1.0" stroke-linejoin="round" stroke-linecap="butt" d="m173.31548 305.1313l278.44165 -94.07939" fill-rule="evenodd"/><path fill="#000000" stroke="#000000" stroke-width="1.0" stroke-linecap="butt" d="m452.28586 212.61671l3.7705994 -3.0174713l-4.8280334 -0.11216736z" fill-rule="evenodd"/><path fill="#000000" fill-opacity="0.0" d="m173.31548 337.1313l285.95276 -124.15747" fill-rule="evenodd"/><path stroke="#000000" stroke-width="1.0" stroke-linejoin="round" stroke-linecap="butt" d="m173.31548 337.1313l280.4491 -121.76787" fill-rule="evenodd"/><path fill="#000000" stroke="#000000" stroke-width="1.0" stroke-linecap="butt" d="m454.42242 216.87851l3.5048218 -3.322464l-4.8204956 0.29229736z" fill-rule="evenodd"/><path fill="#000000" fill-opacity="0.0" d="m128.42258 27.714312l34.078735 0l0 58.173233l-34.078735 0z" fill-rule="evenodd"/><path fill="#000000" d="m156.67258 45.684315l0 21.499996l-5.625 0l-6.0 -9.999996l0 9.999996l-5.625 0l0 -21.499996l5.375 0l6.25 10.125l0 -10.125l5.625 0zm-5.0 20.624996l4.125 0l0 -19.749996l-3.875 0l0 12.25l-7.75 -12.25l-3.875 0l0 19.749996l3.875 0l0 -12.124996l7.5 12.124996z" fill-rule="nonzero"/><path fill="#000000" fill-opacity="0.0" d="m448.9387 21.004635l34.078766 0l0 58.17323l-34.078766 0z" fill-rule="evenodd"/><path fill="#000000" d="m477.1887 38.974636l0 21.5l-5.625 0l-6.0 -10.0l0 10.0l-5.625 0l0 -21.5l5.375 0l6.25 10.125l0 -10.125l5.625 0zm-5.0 20.625l4.125 0l0 -19.75l-3.875 0l0 12.25l-7.75 -12.25l-3.875 0l0 19.75l3.875 0l0 -12.125l7.5 12.125z" fill-rule="nonzero"/><path fill="#000000" fill-opacity="0.0" d="m295.8924 4.3768115l46.456696 0l0 58.17323l-46.456696 0z" fill-rule="evenodd"/><path fill="#000000" d="m302.62677 48.67494q0 0.25 -0.140625 0.484375q-0.15625 0.25 -0.15625 0.375q0 0.515625 0.640625 0.515625q2.046875 0 3.109375 -5.1875l2.8125 -13.4375l-2.875 0l0.21875 -1.03125l2.9375 0q0.421875 -1.3125 0.71875 -2.171875q0.3125 -0.859375 0.90625 -2.078125q0.59375 -1.21875 1.234375 -1.953125q0.640625 -0.734375 1.59375 -1.265625q0.96875 -0.53125 2.078125 -0.53125q1.1875 0 1.96875 0.59375q0.78125 0.59375 0.78125 1.5q0 0.5 -0.40625 0.890625q-0.390625 0.375 -0.9375 0.375q-0.53125 0 -0.859375 -0.34375q-0.3125 -0.359375 -0.3125 -0.921875q0 -0.296875 0.15625 -0.609375q0.15625 -0.328125 0.15625 -0.390625q0 -0.375 -0.703125 -0.375q-1.34375 0 -2.28125 1.765625q-0.921875 1.75 -1.625 5.515625l3.453125 0l-0.1875 1.03125l-3.484375 0l-2.3125 10.234375q-0.984375 4.421875 -2.625 6.734375q-1.625 2.328125 -3.765625 2.328125q-1.0625 0 -1.796875 -0.578125q-0.734375 -0.578125 -0.734375 -1.375q0 -0.546875 0.34375 -0.9375q0.328125 -0.375 0.84375 -0.375q0.5 0 0.875 0.34375q0.375 0.359375 0.375 0.875z" fill-rule="nonzero"/></g></svg>